<svg height="512" viewBox="0 0 512 512" width="512" xmlns="http://www.w3.org/2000/svg"><g id="Flat"><g fill="#e67007"><path d="m477.06 332.35-13.06-4.35-32-88h-24l-9.6 19.2 33.6 100.8h56v-12.47a16.014 16.014 0 0 0 -10.94-15.18z"/><path d="m240 288-13.33 33.33-26.67 6.67-4.97 19.88a16 16 0 0 1 -15.52 12.12h-19.51l8-56 40-8v-72z"/><path d="m198.46 168a79.99 79.99 0 0 0 -77.61 60.6l-15.76 63.04a48 48 0 0 1 -46.57 36.36h-18.52a16 16 0 1 0 0 32h17.54a79.99 79.99 0 0 0 77.61-60.6l15.76-63.04a48 48 0 0 1 46.57-36.36h58.52v-32z"/></g><path d="m469.85 200.89a28.285 28.285 0 0 0 -6.13-9.17l-7.72-7.72-.39-1.57a40.161 40.161 0 0 0 -54.34-27.37 39.345 39.345 0 0 0 -6.21 3.23l-2.575-1.932a17.192 17.192 0 0 0 -25.693 6.065 17.148 17.148 0 0 0 -1.672 5.57h-.015-109.105a47.948 47.948 0 0 0 -48 48v40l32 32-13.33 33.33-2.67 6.677v32h64v-12.47a16.014 16.014 0 0 0 -10.94-15.18l-13.06-4.35 24-56-8-32h72l-32 96v24h56v-8a16 16 0 0 0 -16-16l38.4-76.8 9.6-19.2h35.72a28.292 28.292 0 0 0 26.13-39.11z" fill="#f98500"/><path d="m280 248a8 8 0 0 1 -7.588-5.472l-8-24a8 8 0 1 1 15.178-5.06l8 24a8 8 0 0 1 -7.59 10.532z" fill="#e66000"/><path d="m383.993 200a7.97 7.97 0 0 1 -4.431-1.345l-11.372-7.581a25.192 25.192 0 1 1 29.09-41.114l15.52 11.64a8 8 0 1 1 -9.6 12.8l-15.52-11.639a9.192 9.192 0 1 0 -10.615 15l11.373 7.581a8 8 0 0 1 -4.445 14.658z" fill="#e66000"/></g></svg>